:FULLY-SPECIFIED
:FORCE-ALL-JOINTS-BE-3DOF
:DEGREES
781
root 1.6931 16.3244 18.6791 -30.6472 74.9687 322.796
lfemur -39.2785 15.1805 -15.658
ltibia 51.9925 0 0
lfoot -22.5623 18.0184 0
ltoes 19.2276 0 0
rfemur -15.0944 -22.6148 21.967
rtibia 51.181 0 0
rfoot -19.6482 -32.2299 0
rtoes -22.7379 0 0
lowerback 1.15779 4.69328 -0.71044
upperback -0.964785 6.24348 -3.68629
thorax -1.30149 3.13519 -3.5191
lowerneck -5.36701 -6.51114 -0.680703
upperneck -2.632 -8.5505 5.2103
head 0.359208 -4.204 1.54956
lclavicle 4.25825e-14 -4.99802e-15 0
lhumerus -55.6024 -11.1802 94.3489
lradius 70.0284 0 0
lwrist 13.5799 0 0
lhand -19.1137 -4.55499 0
lfingers 7.12502 0 0
lthumb 7.19478 25.2874 0
rclavicle 4.25825e-14 -4.99802e-15 0
rhumerus -30.3635 48.0365 -111.965
rradius 79.1258 0 0
rwrist 6.06476 0 0
rhand -22.8671 -21.002 0
rfingers 7.12502 0 0
rthumb 3.57144 -770.951 0
782
root 1.68551 16.3422 18.7737 -28.7514 72.3286 324.683
lfemur -39.3389 14.1447 -15.2783
ltibia 52.0017 0 0
lfoot -22.351 16.6859 0
ltoes 18.7227 0 0
rfemur -14.9218 -21.6652 21.8559
rtibia 50.5569 0 0
rfoot -19.8336 -31.234 0
rtoes -22.5664 0 0
lowerback 1.17676 4.69063 -0.50541
upperback -0.924627 6.24314 -3.57926
thorax -1.26099 3.13372 -3.52154
lowerneck -5.40174 -6.36194 -0.585488
upperneck -2.56009 -8.36236 5.07107
head 0.373838 -4.11181 1.49339
lclavicle 3.47779e-14 -4.54365e-15 0
lhumerus -55.5808 -11.0205 94.2483
lradius 69.7987 0 0
lwrist 14.2072 0 0
lhand -18.7644 -4.09519 0
lfingers 7.12502 0 0
lthumb 7.53182 25.7314 0
rclavicle 3.47779e-14 -4.54365e-15 0
rhumerus -30.6411 47.8767 -112.183
rradius 78.7712 0 0
rwrist 5.93472 0 0
rhand -22.8138 -21.412 0
rfingers 7.12502 0 0
rthumb 3.62293 -771.36 0
783
root 1.67793 16.36 18.8682 -26.8555 69.6885 326.569
lfemur -39.3994 13.1089 -14.8986
ltibia 52.0108 0 0
lfoot -22.1396 15.3534 0
ltoes 18.2177 0 0
rfemur -14.7493 -20.7155 21.7448
rtibia 49.9328 0 0
rfoot -20.019 -30.2382 0
rtoes -22.395 0 0
lowerback 1.19573 4.68798 -0.30038
upperback -0.884469 6.2428 -3.47223
thorax -1.22048 3.13225 -3.52398
lowerneck -5.43648 -6.21275 -0.490273
upperneck -2.48817 -8.17421 4.93183
head 0.388468 -4.01961 1.43721
lclavicle 2.69732e-14 -4.08929e-15 0
lhumerus -55.5593 -10.8609 94.1478
lradius 69.5691 0 0
lwrist 14.8345 0 0
lhand -18.415 -3.63539 0
lfingers 7.12502 0 0
lthumb 7.86887 26.1754 0
rclavicle 2.69732e-14 -4.08929e-15 0
rhumerus -30.9187 47.7169 -112.401
rradius 78.4166 0 0
rwrist 5.80469 0 0
rhand -22.7605 -21.8221 0
rfingers 7.12502 0 0
rthumb 3.67442 -771.769 0
784
root 1.67034 16.3778 18.9627 -24.9597 67.0484 328.456
lfemur -39.4599 12.0731 -14.5189
ltibia 52.0199 0 0
lfoot -21.9283 14.0209 0
ltoes 17.7128 0 0
rfemur -14.5767 -19.7658 21.6337
rtibia 49.3088 0 0
rfoot -20.2045 -29.2424 0
rtoes -22.2235 0 0
lowerback 1.21471 4.68533 -0.09535
upperback -0.844311 6.24245 -3.3652
thorax -1.17997 3.13078 -3.52641
lowerneck -5.47121 -6.06355 -0.395058
upperneck -2.41626 -7.98606 4.7926
head 0.403098 -3.92741 1.38104
lclavicle 1.91685e-14 -3.63492e-15 0
lhumerus -55.5378 -10.7012 94.0472
lradius 69.3394 0 0
lwrist 15.4618 0 0
lhand -18.0657 -3.17559 0
lfingers 7.12502 0 0
lthumb 8.20591 26.6194 0
rclavicle 1.91685e-14 -3.63492e-15 0
rhumerus -31.1962 47.557 -112.619
rradius 78.0621 0 0
rwrist 5.67465 0 0
rhand -22.7072 -22.2322 0
rfingers 7.12502 0 0
rthumb 3.72591 -772.179 0
785
root 1.66276 16.3956 19.0572 -23.0638 64.4083 330.342
lfemur -39.5203 11.0373 -14.1392
ltibia 52.029 0 0
lfoot -21.7169 12.6885 0
ltoes 17.2078 0 0
rfemur -14.4042 -18.8162 21.5226
rtibia 48.6847 0 0
rfoot -20.3899 -28.2465 0
rtoes -22.052 0 0
lowerback 1.23368 4.68267 0.10968
upperback -0.804152 6.24211 -3.25816
thorax -1.13946 3.12931 -3.52885
lowerneck -5.50594 -5.91436 -0.299843
upperneck -2.34435 -7.79791 4.65336
head 0.417728 -3.83521 1.32487
lclavicle 1.13639e-14 -3.18056e-15 0
lhumerus -55.5163 -10.5416 93.9467
lradius 69.1097 0 0
lwrist 16.0891 0 0
lhand -17.7163 -2.71579 0
lfingers 7.12502 0 0
lthumb 8.54296 27.0634 0
rclavicle 1.13639e-14 -3.18056e-15 0
rhumerus -31.4738 47.3972 -112.837
rradius 77.7075 0 0
rwrist 5.54462 0 0
rhand -22.6538 -22.6422 0
rfingers 7.12502 0 0
rthumb 3.77741 -772.588 0
786
root 1.65517 16.4133 19.1517 -21.1679 61.7682 332.229
lfemur -39.5808 10.0016 -13.7595
ltibia 52.0381 0 0
lfoot -21.5055 11.356 0
ltoes 16.7029 0 0
rfemur -14.2316 -17.8665 21.4114
rtibia 48.0606 0 0
rfoot -20.5753 -27.2507 0
rtoes -21.8806 0 0
lowerback 1.25265 4.68002 0.31471
upperback -0.763994 6.24177 -3.15113
thorax -1.09895 3.12784 -3.53129
lowerneck -5.54068 -5.76517 -0.204627
upperneck -2.27243 -7.60976 4.51413
head 0.432359 -3.74301 1.26869
lclavicle 3.5592e-15 -2.72619e-15 0
lhumerus -55.4948 -10.3819 93.8461
lradius 68.8801 0 0
lwrist 16.7164 0 0
lhand -17.3669 -2.25599 0
lfingers 7.12502 0 0
lthumb 8.88001 27.5074 0
rclavicle 3.5592e-15 -2.72619e-15 0
rhumerus -31.7514 47.2374 -113.055
rradius 77.3529 0 0
rwrist 5.41458 0 0
rhand -22.6005 -23.0523 0
rfingers 7.12502 0 0
rthumb 3.8289 -772.997 0
787
root 1.64759 16.4311 19.2462 -19.2721 59.1281 334.115
lfemur -39.6413 8.96578 -13.3798
ltibia 52.0472 0 0
lfoot -21.2942 10.0235 0
ltoes 16.1979 0 0
rfemur -14.0591 -16.9169 21.3003
rtibia 47.4365 0 0
rfoot -20.7608 -26.2549 0
rtoes -21.7091 0 0
lowerback 1.27163 4.67737 0.51974
upperback -0.723836 6.24142 -3.0441
thorax -1.05844 3.12637 -3.53373
lowerneck -5.57541 -5.61597 -0.109412
upperneck -2.20052 -7.42161 4.37489
head 0.446989 -3.65081 1.21252
lclavicle -4.24546e-15 -2.27183e-15 0
lhumerus -55.4733 -10.2222 93.7456
lradius 68.6504 0 0
lwrist 17.3437 0 0
lhand -17.0176 -1.79619 0
lfingers 7.12502 0 0
lthumb 9.21705 27.9514 0
rclavicle -4.24546e-15 -2.27183e-15 0
rhumerus -32.029 47.0776 -113.273
rradius 76.9984 0 0
rwrist 5.28455 0 0
rhand -22.5472 -23.4624 0
rfingers 7.12502 0 0
rthumb 3.88039 -773.406 0
788
root 1.64 16.4489 19.3407 -17.3762 56.488 336.002
lfemur -39.7017 7.93 -13.0001
ltibia 52.0563 0 0
lfoot -21.0828 8.69097 0
ltoes 15.693 0 0
rfemur -13.8865 -15.9672 21.1892
rtibia 46.8124 0 0
rfoot -20.9462 -25.259 0
rtoes -21.5376 0 0
lowerback 1.2906 4.67472 0.72477
upperback -0.683678 6.24108 -2.93707
thorax -1.01793 3.1249 -3.53617
lowerneck -5.61014 -5.46678 -0.0141971
upperneck -2.12861 -7.23346 4.23566
head 0.461619 -3.55861 1.15635
lclavicle -1.20501e-14 -1.81746e-15 0
lhumerus -55.4518 -10.0626 93.645
lradius 68.4207 0 0
lwrist 17.971 0 0
lhand -16.6682 -1.33639 0
lfingers 7.12502 0 0
lthumb 9.5541 28.3954 0
rclavicle -1.20501e-14 -1.81746e-15 0
rhumerus -32.3066 46.9178 -113.491
rradius 76.6438 0 0
rwrist 5.15451 0 0
rhand -22.4939 -23.8724 0
rfingers 7.12502 0 0
rthumb 3.93188 -773.815 0
789
root 1.63242 16.4667 19.4353 -15.4804 53.8478 337.888
lfemur -39.7622 6.89423 -12.6204
ltibia 52.0655 0 0
lfoot -20.8715 7.35848 0
ltoes 15.188 0 0
rfemur -13.714 -15.0175 21.0781
rtibia 46.1883 0 0
rfoot -21.1316 -24.2632 0
rtoes -21.3662 0 0
lowerback 1.30957 4.67206 0.9298
upperback -0.643519 6.24074 -2.83003
thorax -0.977425 3.12342 -3.53861
lowerneck -5.64488 -5.31758 0.0810181
upperneck -2.05669 -7.04532 4.09642
head 0.476249 -3.46642 1.10017
lclavicle -1.98548e-14 -1.3631e-15 0
lhumerus -55.4302 -9.9029 93.5445
lradius 68.1911 0 0
lwrist 18.5983 0 0
lhand -16.3189 -0.876595 0
lfingers 7.12502 0 0
lthumb 9.89114 28.8395 0
rclavicle -1.98548e-14 -1.3631e-15 0
rhumerus -32.5842 46.758 -113.709
rradius 76.2892 0 0
rwrist 5.02448 0 0
rhand -22.4405 -24.2825 0
rfingers 7.12502 0 0
rthumb 3.98338 -774.224 0
790
root 1.62483 16.4845 19.5298 -13.5845 51.2077 339.775
lfemur -39.8226 5.85845 -12.2407
ltibia 52.0746 0 0
lfoot -20.6601 6.02599 0
ltoes 14.6831 0 0
rfemur -13.5414 -14.0679 20.967
rtibia 45.5642 0 0
rfoot -21.317 -23.2673 0
rtoes -21.1947 0 0
lowerback 1.32854 4.66941 1.13483
upperback -0.603361 6.2404 -2.723
thorax -0.936917 3.12195 -3.54105
lowerneck -5.67961 -5.16839 0.176233
upperneck -1.98478 -6.85717 3.95719
head 0.490879 -3.37422 1.044
lclavicle -2.76594e-14 -9.08733e-16 0
lhumerus -55.4087 -9.74324 93.4439
lradius 67.9614 0 0
lwrist 19.2256 0 0
lhand -15.9695 -0.416796 0
lfingers 7.12502 0 0
lthumb 10.2282 29.2835 0
rclavicle -2.76594e-14 -9.08733e-16 0
rhumerus -32.8618 46.5982 -113.927
rradius 75.9346 0 0
rwrist 4.89444 0 0
rhand -22.3872 -24.6925 0
rfingers 7.12502 0 0
rthumb 4.03487 -774.633 0
791
root 1.61725 16.5023 19.6243 -11.6887 48.5676 341.661
lfemur -39.8831 4.82267 -11.861
ltibia 52.0837 0 0
lfoot -20.4488 4.69349 0
ltoes 14.1781 0 0
rfemur -13.3689 -13.1182 20.8559
rtibia 44.9401 0 0
rfoot -21.5025 -22.2715 0
rtoes -21.0232 0 0
lowerback 1.34752 4.66676 1.33986
upperback -0.563203 6.24005 -2.61597
thorax -0.896408 3.12048 -3.54349
lowerneck -5.71434 -5.01919 0.271448
upperneck -1.91287 -6.66902 3.81795
head 0.505509 -3.28202 0.987829
lclavicle -3.54641e-14 -4.54368e-16 0
lhumerus -55.3872 -9.58358 93.3434
lradius 67.7317 0 0
lwrist 19.8529 0 0
lhand -15.6202 0.0430038 0
lfingers 7.12502 0 0
lthumb 10.5652 29.7275 0
rclavicle -3.54641e-14 -4.54368e-16 0
rhumerus -33.1394 46.4384 -114.145
rradius 75.5801 0 0
rwrist 4.76441 0 0
rhand -22.3339 -25.1026 0
rfingers 7.12502 0 0
rthumb 4.08636 -775.042 0
792
root 1.60966 16.52 19.7188 -9.79281 45.9275 343.548
lfemur -39.9436 3.78689 -11.4813
ltibia 52.0928 0 0
lfoot -20.2374 3.361 0
ltoes 13.6732 0 0
rfemur -13.1963 -12.1686 20.7447
rtibia 44.316 0 0
rfoot -21.6879 -21.2757 0
rtoes -20.8518 0 0
lowerback 1.36649 4.66411 1.54489
upperback -0.523045 6.23971 -2.50894
thorax -0.855899 3.11901 -3.54593
lowerneck -5.74908 -4.87 0.366664
upperneck -1.84095 -6.48087 3.67872
head 0.52014 -3.18982 0.931655
lclavicle -4.32688e-14 -3.33333e-21 0
lhumerus -55.3657 -9.42391 93.2428
lradius 67.5021 0 0
lwrist 20.4802 0 0
lhand -15.2708 0.502803 0
lfingers 7.12502 0 0
lthumb 10.9023 30.1715 0
rclavicle -4.32688e-14 -3.33333e-21 0
rhumerus -33.417 46.2786 -114.363
rradius 75.2255 0 0
rwrist 4.63437 0 0
rhand -22.2806 -25.5127 0
rfingers 7.12502 0 0
rthumb 4.13785 -775.451 0
793
root 1.60208 16.5378 19.8133 -7.89695 43.2874 345.434
lfemur -40.004 2.75111 -11.1016
ltibia 52.1019 0 0
lfoot -20.026 2.02851 0
ltoes 13.1682 0 0
rfemur -13.0238 -11.2189 20.6336
rtibia 43.6919 0 0
rfoot -21.8733 -20.2798 0
rtoes -20.6803 0 0
lowerback 1.38546 4.66145 1.74992
upperback -0.482886 6.23937 -2.4019
thorax -0.815391 3.11754 -3.54837
lowerneck -5.78381 -4.72081 0.461879
upperneck -1.76904 -6.29272 3.53948
head 0.53477 -3.09762 0.875482
lclavicle -5.10734e-14 4.54361e-16 0
lhumerus -55.3442 -9.26425 93.1423
lradius 67.2724 0 0
lwrist 21.1075 0 0
lhand -14.9214 0.962603 0
lfingers 7.12502 0 0
lthumb 11.2393 30.6155 0
rclavicle -5.10734e-14 4.54361e-16 0
rhumerus -33.6946 46.1188 -114.581
rradius 74.8709 0 0
rwrist 4.50434 0 0
rhand -22.2272 -25.9227 0
rfingers 7.12502 0 0
rthumb 4.18935 -775.86 0
